<?xml version="1.0" standalone="no"?><!DOCTYPE svg PUBLIC "-//W3C//DTD SVG 1.1//EN" "http://www.w3.org/Graphics/SVG/1.1/DTD/svg11.dtd"><svg t="1577240887965" class="icon" viewBox="0 0 1024 1024" version="1.1" xmlns="http://www.w3.org/2000/svg" p-id="4188" xmlns:xlink="http://www.w3.org/1999/xlink" width="200" height="200"><defs><style type="text/css"></style></defs><path d="M462.364444 234.666667a21.333333 21.333333 0 0 1 3.84 42.325333l-3.84 0.341333H384c-129.607111 0-234.666667 105.059556-234.666667 234.666667 0 126.435556 99.996444 229.532444 225.223111 234.481778L384 746.666667h78.364444a21.333333 21.333333 0 0 1 3.84 42.325333l-3.84 0.341333H384C230.826667 789.333333 106.666667 665.173333 106.666667 512c0-149.831111 118.826667-271.928889 267.377777-277.162667l9.955556-0.170666h78.364444zM640 320.725333a8.533333 8.533333 0 0 1-14.563556 6.044445l-64.739555-64.739556a8.533333 8.533333 0 0 1 0-12.060444l64.739555-64.739556A8.533333 8.533333 0 0 1 640 191.288889V234.666667c153.173333 0 277.333333 124.16 277.333333 277.333333 0 149.831111-118.826667 271.928889-267.377777 277.162667l-9.955556 0.170666v43.392a8.533333 8.533333 0 0 1-14.563556 6.044445l-64.739555-64.739556a8.533333 8.533333 0 0 1 0-12.060444l64.739555-64.739556A8.533333 8.533333 0 0 1 640 703.288889V746.666667c129.607111 0 234.666667-105.059556 234.666667-234.666667 0-126.435556-99.996444-229.532444-225.223111-234.481778L640 277.333333v43.392z" p-id="4189" fill="#707070"></path></svg>