<?xml version="1.0" standalone="no"?><!DOCTYPE svg PUBLIC "-//W3C//DTD SVG 1.1//EN" "http://www.w3.org/Graphics/SVG/1.1/DTD/svg11.dtd"><svg t="1577247667872" class="icon" viewBox="0 0 1024 1024" version="1.1" xmlns="http://www.w3.org/2000/svg" p-id="4935" xmlns:xlink="http://www.w3.org/1999/xlink" width="200" height="200"><defs><style type="text/css"></style></defs><path d="M723.3536 369.8688H300.6464c-13.312 0-24.1664-13.1072-24.1664-28.8768 0-15.7696 10.8544-28.8768 24.1664-28.8768h422.7072c13.312 0 24.1664 13.1072 24.1664 28.8768 0 15.7696-10.8544 28.8768-24.1664 28.8768zM723.3536 541.9008H300.6464c-13.312 0-24.1664-13.312-24.1664-29.4912s10.8544-29.4912 24.1664-29.4912h422.7072c13.312 0 24.1664 13.312 24.1664 29.4912s-10.8544 29.4912-24.1664 29.4912zM723.3536 711.8848H300.6464c-13.312 0-24.1664-13.1072-24.1664-29.0816 0-15.9744 10.8544-29.0816 24.1664-29.0816h422.7072c13.312 0 24.1664 13.1072 24.1664 29.0816 0 15.9744-10.8544 29.0816-24.1664 29.0816z" fill="#8a8a8a" p-id="4936"></path><path d="M768 946.176H256c-98.304 0-178.176-79.872-178.176-178.176V256c0-98.304 79.872-178.176 178.176-178.176v57.344c-66.56 0-120.832 54.272-120.832 120.832v512c0 66.56 54.272 120.832 120.832 120.832h512c66.56 0 120.832-54.272 120.832-120.832V256c0-66.56-54.272-120.832-120.832-120.832V77.824c98.304 0 178.176 79.872 178.176 178.176v512c0 98.304-79.872 178.176-178.176 178.176z" fill="#8a8a8a" p-id="4937"></path><path d="M607.4368 132.7104H399.9744c-14.1312 0-26.0096-11.6736-26.0096-26.0096 0-14.1312 11.6736-26.0096 26.0096-26.0096h207.4624c14.1312 0 26.0096 11.6736 26.0096 26.0096-0.2048 14.336-11.8784 26.0096-26.0096 26.0096zM262.144 135.168h-12.288c-13.5168 0-24.576-11.0592-24.576-24.576v-8.192c0-13.5168 11.0592-24.576 24.576-24.576h12.288c13.5168 0 24.576 11.0592 24.576 24.576v8.192c0 13.5168-11.0592 24.576-24.576 24.576zM778.24 135.168h-12.288c-13.5168 0-24.576-11.0592-24.576-24.576v-8.192c0-13.5168 11.0592-24.576 24.576-24.576h12.288c13.5168 0 24.576 11.0592 24.576 24.576v8.192c0 13.5168-11.0592 24.576-24.576 24.576z" fill="#8a8a8a" p-id="4938"></path></svg>